<?xml version="1.0" encoding="UTF-8"?>
<!DOCTYPE svg PUBLIC "-//W3C//DTD SVG 1.1//EN" "http://www.w3.org/Graphics/SVG/1.1/DTD/svg11.dtd">
<!-- Creator: CorelDRAW 2017 -->
<svg xmlns="http://www.w3.org/2000/svg" xml:space="preserve" width="200px" height="200px" version="1.1" style="shape-rendering:geometricPrecision; text-rendering:geometricPrecision; image-rendering:optimizeQuality; fill-rule:evenodd; clip-rule:evenodd"
viewBox="0 0 136.055 136.055"
 xmlns:xlink="http://www.w3.org/1999/xlink">
 <defs>
  <style type="text/css">
   <![CDATA[
    .fil0 {fill:#0083C4}
    .fil1 {fill:white;fill-rule:nonzero}
   ]]>
  </style>
 </defs>
 <g id="Layer_x0020_1">
  <metadata id="CorelCorpID_0Corel-Layer"/>
  <rect class="fil0" width="136.054" height="136.054"/>
  <path class="fil1" d="M39.489 102.073c-7.438,0 -12.955,-1.965 -16.553,-5.895 -3.598,-3.931 -5.397,-9.554 -5.397,-16.871 0,-4.052 0.393,-8.526 1.179,-13.424 1.693,-10.885 4.732,-18.942 9.116,-24.172 4.384,-5.231 10.778,-7.846 19.184,-7.846 7.981,0 15.207,1.27 21.677,3.809l-1.723 10.613c-5.986,-1.573 -11.852,-2.359 -17.596,-2.359 -3.387,0 -6.138,0.59 -8.254,1.769 -2.117,1.179 -3.916,3.386 -5.397,6.621 -1.481,3.235 -2.736,7.907 -3.764,14.014 -0.726,4.777 -1.089,8.465 -1.089,11.065 0,3.81 0.907,6.531 2.722,8.164 1.813,1.632 4.958,2.449 9.432,2.449 3.75,0 6.849,-0.091 9.298,-0.272 2.448,-0.182 5.185,-0.454 8.208,-0.817l-1.723 10.522c-5.08,1.753 -11.519,2.63 -19.32,2.63z"/>
  <path id="1" class="fil1" d="M83.661 102.073c-3.87,0 -7.226,-0.846 -10.068,-2.539 -2.842,-1.693 -4.263,-4.778 -4.263,-9.252 0,-1.089 0.091,-2.207 0.272,-3.356l5.896 -37.097c1.572,-10.28 7.558,-15.42 17.959,-15.42 8.042,0 17.173,0.393 27.392,1.179l-1.814 11.247 -23.673 0c-2.117,0 -3.719,0.514 -4.807,1.542 -1.089,1.028 -1.814,2.631 -2.177,4.808l-1.361 8.707 25.125 0.816 -1.724 10.612 -25.306 0.726 -1.451 9.343c-0.121,0.846 -0.181,1.42 -0.181,1.723 0,1.572 0.453,2.691 1.36,3.356 0.907,0.665 2.298,0.998 4.173,0.998l23.31 0 -1.723 11.247c-11.368,0.846 -20.348,1.3 -26.939,1.36z"/>
 </g>
</svg>
