<?xml version="1.0" encoding="UTF-8"?>
<!DOCTYPE svg PUBLIC "-//W3C//DTD SVG 1.1//EN" "http://www.w3.org/Graphics/SVG/1.1/DTD/svg11.dtd">
<!-- Creator: CorelDRAW 2021 (64-Bit Not for commercial use) -->
<svg xmlns="http://www.w3.org/2000/svg" xml:space="preserve" width="376px" height="376px" version="1.1" style="shape-rendering:geometricPrecision; text-rendering:geometricPrecision; image-rendering:optimizeQuality; fill-rule:evenodd; clip-rule:evenodd"
viewBox="0 0 302.78 302.78"
 xmlns:xlink="http://www.w3.org/1999/xlink"
 xmlns:xodm="http://www.corel.com/coreldraw/odm/2003">
 <defs>
  <style type="text/css">
   <![CDATA[
    .str0 {stroke:white;stroke-width:1.9;stroke-miterlimit:22.9256}
    .fil0 {fill:white}
    .fil1 {fill:#005E8E;fill-rule:nonzero}
   ]]>
  </style>
 </defs>
 <g id="Layer_x0020_1">
  <metadata id="CorelCorpID_0Corel-Layer"/>
  <rect class="fil0 str0" x="9.88" y="9.88" width="281.86" height="284.12" rx="20" ry="20"/>
  <path class="fil1" d="M269.14 0l-235.5 0c-18.5,0 -33.64,15.14 -33.64,33.64l0 235.5c0,18.5 15.14,33.64 33.64,33.64l235.5 0c18.5,0 33.64,-15.14 33.64,-33.64l0 -235.5c0,-18.5 -15.14,-33.64 -33.64,-33.64zm-193.44 252.32c-13.97,0 -25.24,-11.27 -25.24,-25.23 0,-13.96 11.27,-25.23 25.24,-25.23 13.96,0 25.23,11.27 25.23,25.23 0,13.96 -11.27,25.23 -25.23,25.23zm0 -151.39c-13.97,0 -25.24,-11.27 -25.24,-25.23 0,-13.97 11.27,-25.24 25.24,-25.24 13.96,0 25.23,11.27 25.23,25.24 0,13.96 -11.27,25.23 -25.23,25.23zm75.69 75.69c-13.96,0 -25.23,-11.27 -25.23,-25.23 0,-13.96 11.27,-25.23 25.23,-25.23 13.96,0 25.23,11.27 25.23,25.23 0,13.96 -11.27,25.23 -25.23,25.23zm75.7 75.7c-13.96,0 -25.23,-11.27 -25.23,-25.23 0,-13.96 11.27,-25.23 25.23,-25.23 13.96,0 25.23,11.27 25.23,25.23 0,13.96 -11.27,25.23 -25.23,25.23zm0 -151.39c-13.96,0 -25.23,-11.27 -25.23,-25.23 0,-13.97 11.27,-25.24 25.23,-25.24 13.96,0 25.23,11.27 25.23,25.24 0,13.96 -11.27,25.23 -25.23,25.23z"/>
 </g>
</svg>
